<svg width="16" height="16" viewBox="0 0 16 16" fill="none" xmlns="http://www.w3.org/2000/svg">
<rect x="0.477661" y="0.477722" width="15.5223" height="15.5223" rx="3" fill="#BF855D"/>
<rect width="15.5223" height="15.5223" rx="3" fill="#9B6C4B"/>
<path d="M5.008 11.04C4.55467 11.04 4.17067 10.9627 3.856 10.808C3.54667 10.6533 3.296 10.4427 3.104 10.176C2.91733 9.90933 2.77867 9.60533 2.688 9.264C2.60267 8.92267 2.56 8.568 2.56 8.2V5.32H3.456V8.2C3.456 8.46133 3.48267 8.71467 3.536 8.96C3.58933 9.2 3.67467 9.416 3.792 9.608C3.90933 9.8 4.06667 9.952 4.264 10.064C4.46667 10.176 4.71467 10.232 5.008 10.232C5.30667 10.232 5.55467 10.176 5.752 10.064C5.95467 9.94667 6.112 9.792 6.224 9.6C6.34133 9.40267 6.42667 9.184 6.48 8.944C6.53333 8.704 6.56 8.456 6.56 8.2V5.32H7.464V8.2C7.464 8.58933 7.416 8.95733 7.32 9.304C7.22933 9.64533 7.08533 9.94667 6.888 10.208C6.696 10.464 6.44533 10.6667 6.136 10.816C5.82667 10.9653 5.45067 11.04 5.008 11.04ZM13.3196 5.32V11H12.4156V8.496H9.55163V11H8.65563V5.32H9.55163V7.696H12.4156V5.32H13.3196Z" fill="white"/>
</svg>
