<svg width="32" height="32" viewBox="0 0 32 32" fill="none" xmlns="http://www.w3.org/2000/svg">
<path d="M30.0326 23.2625L19.1013 4.27877C18.7847 3.73728 18.3318 3.28813 17.7877 2.976C17.2436 2.66387 16.6273 2.49963 16.0001 2.49963C15.3728 2.49963 14.7565 2.66387 14.2124 2.976C13.6683 3.28813 13.2154 3.73728 12.8988 4.27877L1.96755 23.2625C1.66033 23.788 1.49841 24.3857 1.49841 24.9944C1.49841 25.6031 1.66033 26.2008 1.96755 26.7263C2.28067 27.2704 2.73292 27.7215 3.27791 28.0332C3.8229 28.3449 4.441 28.506 5.0688 28.5H26.9313C27.5587 28.5056 28.1763 28.3443 28.7208 28.0326C29.2653 27.7209 29.7172 27.2701 30.0301 26.7263C30.3377 26.201 30.5 25.6034 30.5004 24.9947C30.5009 24.386 30.3394 23.7882 30.0326 23.2625ZM27.4326 25.225C27.3817 25.3116 27.3084 25.3829 27.2204 25.4313C27.1324 25.4797 27.0329 25.5035 26.9326 25.5H5.0688C4.96842 25.5035 4.86896 25.4797 4.78095 25.4313C4.69294 25.3829 4.61964 25.3116 4.5688 25.225C4.52568 25.1549 4.50285 25.0742 4.50285 24.9919C4.50285 24.9096 4.52568 24.8289 4.5688 24.7588L15.5001 5.77502C15.5542 5.6917 15.6283 5.62323 15.7156 5.57582C15.8029 5.52842 15.9007 5.50359 16.0001 5.50359C16.0994 5.50359 16.1972 5.52842 16.2845 5.57582C16.3718 5.62323 16.4459 5.6917 16.5001 5.77502L27.4301 24.7588C27.4736 24.8286 27.4968 24.9092 27.4973 24.9915C27.4977 25.0738 27.4753 25.1547 27.4326 25.225ZM14.5001 17V13C14.5001 12.6022 14.6581 12.2207 14.9394 11.9394C15.2207 11.6581 15.6022 11.5 16.0001 11.5C16.3979 11.5 16.7794 11.6581 17.0607 11.9394C17.342 12.2207 17.5001 12.6022 17.5001 13V17C17.5001 17.3978 17.342 17.7794 17.0607 18.0607C16.7794 18.342 16.3979 18.5 16.0001 18.5C15.6022 18.5 15.2207 18.342 14.9394 18.0607C14.6581 17.7794 14.5001 17.3978 14.5001 17ZM18.0001 22C18.0001 22.3956 17.8828 22.7823 17.663 23.1112C17.4432 23.4401 17.1309 23.6964 16.7654 23.8478C16.4 23.9991 15.9978 24.0388 15.6099 23.9616C15.2219 23.8844 14.8655 23.6939 14.5858 23.4142C14.3061 23.1345 14.1157 22.7782 14.0385 22.3902C13.9613 22.0022 14.0009 21.6001 14.1523 21.2346C14.3037 20.8692 14.56 20.5568 14.8889 20.3371C15.2178 20.1173 15.6045 20 16.0001 20C16.5305 20 17.0392 20.2107 17.4143 20.5858C17.7893 20.9609 18.0001 21.4696 18.0001 22Z" fill="#AD1F1F"/>
</svg>
